<svg xmlns="http://www.w3.org/2000/svg" xmlns:xlink="http://www.w3.org/1999/xlink" xml:space="preserve" version="1.1" style="shape-rendering:geometricPrecision;text-rendering:geometricPrecision;image-rendering:optimizeQuality;" viewBox="0 0 333 416.25" x="0px" y="0px" fill-rule="evenodd" clip-rule="evenodd"><defs><style type="text/css">
   
    .fil0 {fill:black;fill-rule:nonzero}
   
  </style></defs><g><path class="fil0" d="M167 21c80,0 145,65 145,146 0,80 -65,145 -145,145 -81,0 -146,-65 -146,-145 0,-81 65,-146 146,-146zm3 225l0 27 -7 0 0 -27 7 0zm-7 -194c-62,2 -111,53 -111,115 0,63 51,114 115,114 39,0 76,-20 97,-54l-101 -58c0,-39 0,-78 0,-117zm60 24l-14 24 -6 -4 14 -23 6 3zm-93 161l-14 23 -5 -3 13 -23 6 3zm130 -121l-23 14 -3 -6 23 -13 3 5zm-160 93l-24 14 -3 -6 23 -14 4 6zm-24 -98l24 13 -4 6 -23 -14 3 -5zm40 -38l14 23 -6 4 -13 -24 5 -3zm93 161l14 23 -6 3 -14 -23 6 -3zm-149 -71l27 0 0 7 -27 0 0 -7zm186 0l27 0 0 7 -27 0 0 -7zm-79 -135c-77,0 -139,62 -139,139 0,76 62,139 139,139 76,0 139,-63 139,-139 0,-77 -63,-139 -139,-139z"/></g><text x="0" y="348" fill="#000000" font-size="5px" font-weight="bold" font-family="'Helvetica Neue', Helvetica, Arial-Unicode, Arial, Sans-serif">Created by Arif Karya</text><text x="0" y="353" fill="#000000" font-size="5px" font-weight="bold" font-family="'Helvetica Neue', Helvetica, Arial-Unicode, Arial, Sans-serif">from the Noun Project</text></svg>